<?xml version="1.0" encoding="iso-8859-1"?>
<!-- Generator: Adobe Illustrator 19.0.0, SVG Export Plug-In . SVG Version: 6.00 Build 0)  -->
<svg version="1.1" id="Layer_1" xmlns="http://www.w3.org/2000/svg" xmlns:xlink="http://www.w3.org/1999/xlink" x="0px" y="0px"
	 viewBox="0 0 512.001 512.001" style="enable-background:new 0 0 512.001 512.001;" xml:space="preserve">
<g>
	<g>
		<path d="M455.475,371.448c4.201,0,7.604-3.405,7.604-7.604V41.782C463.079,18.744,444.337,0,421.298,0H90.702
			C67.664,0,48.922,18.744,48.922,41.782v428.437c0,23.038,18.742,41.782,41.781,41.782h330.595
			c23.039,0,41.782-18.744,41.782-41.782v-77.468c0-4.199-3.404-7.604-7.604-7.604s-7.604,3.405-7.604,7.604v77.468
			c0,14.653-11.921,26.574-26.574,26.574H90.702c-14.653,0-26.573-11.921-26.573-26.574V41.782c0-14.653,11.92-26.574,26.573-26.574
			h330.595c14.653,0,26.574,11.921,26.574,26.574v322.063C447.871,368.044,451.275,371.448,455.475,371.448z"/>
	</g>
</g>
<g>
	<g>
		<path d="M428.563,67.161H139.221c-4.199,0-7.604,3.405-7.604,7.604s3.405,7.604,7.604,7.604h281.738v347.261H91.041V82.369h19.274
			c4.2,0,7.604-3.405,7.604-7.604s-3.405-7.604-7.604-7.604H83.437c-4.199,0-7.604,3.405-7.604,7.604v362.47
			c0,4.199,3.405,7.604,7.604,7.604h345.126c4.199,0,7.604-3.405,7.604-7.604V74.765C436.167,70.566,432.764,67.161,428.563,67.161z
			"/>
	</g>
</g>
<g>
	<g>
		<path d="M166.461,96.454h-37.669c-12.133,0-22.005,9.871-22.005,22.005v37.667c0,12.133,9.871,22.004,22.005,22.004h37.667
			c12.133,0,22.004-9.871,22.004-22.004v-37.667h0.001C188.465,106.325,178.594,96.454,166.461,96.454z M166.461,162.923h-37.669
			c-3.747,0-6.797-3.049-6.797-6.796v-37.668c0-3.747,3.049-6.797,6.797-6.797h37.667c3.747,0,6.796,3.049,6.796,6.797v37.668h0.001
			C173.257,159.874,170.208,162.923,166.461,162.923z"/>
	</g>
</g>
<g>
	<g>
		<path d="M383.207,96.454h-37.669c-12.133,0-22.004,9.871-22.004,22.005v37.667c0,12.133,9.871,22.004,22.004,22.004h37.669
			c12.134,0,22.005-9.871,22.005-22.004v-37.667C405.213,106.325,395.341,96.454,383.207,96.454z M390.003,156.127
			c0,3.747-3.05,6.796-6.797,6.796h-37.667c-3.747,0-6.796-3.049-6.796-6.796v-37.668c0-3.747,3.049-6.797,6.796-6.797h37.667
			c3.747,0,6.797,3.049,6.797,6.797V156.127z"/>
	</g>
</g>
<g>
	<g>
		<path d="M274.834,96.454h-37.667c-12.133,0-22.005,9.871-22.005,22.005v37.667c0,12.133,9.871,22.004,22.005,22.004h37.667
			c12.133,0,22.004-9.871,22.004-22.004v-37.667C296.838,106.325,286.967,96.454,274.834,96.454z M281.63,156.127
			c0,3.747-3.049,6.796-6.796,6.796h-37.667c-3.748,0-6.797-3.049-6.797-6.796v-37.668c0-3.747,3.049-6.797,6.797-6.797h37.667
			c3.747,0,6.796,3.049,6.796,6.797V156.127z"/>
	</g>
</g>
<g>
	<g>
		<path d="M166.461,202.26h-37.669c-12.133,0-22.005,9.871-22.005,22.004v37.669c0,12.133,9.871,22.004,22.005,22.004h37.667
			c12.133,0,22.004-9.871,22.004-22.004v-37.669C188.465,212.131,178.594,202.26,166.461,202.26z M166.461,268.729h-37.669
			c-3.747,0-6.797-3.049-6.797-6.796v-37.669c0-3.747,3.049-6.796,6.797-6.796h37.667c3.747,0,6.796,3.049,6.796,6.796v37.669h0.001
			C173.257,265.68,170.208,268.729,166.461,268.729z"/>
	</g>
</g>
<g>
	<g>
		<path d="M272.811,202.26h-33.623c-13.248,0-24.027,10.779-24.027,24.027v33.623h0.001c0,13.248,10.779,24.027,24.027,24.027
			h18.549c4.201,0,7.604-3.405,7.604-7.604s-3.404-7.604-7.604-7.604h-18.549c-4.863,0-8.819-3.956-8.819-8.819v-33.623
			c0-4.863,3.956-8.819,8.819-8.819h33.623c4.863,0,8.819,3.956,8.819,8.819v33.623c0,2.356-0.917,4.571-2.582,6.235
			c-2.971,2.97-2.971,7.784-0.001,10.754c2.97,2.969,7.785,2.971,10.753,0.001c4.539-4.537,7.037-10.572,7.037-16.991v-33.623
			C296.837,213.039,286.059,202.26,272.811,202.26z"/>
	</g>
</g>
<g>
	<g>
		<path d="M256,449.897c-11.844,0-21.48,9.635-21.48,21.479c0,11.843,9.636,21.479,21.48,21.479c11.844,0,21.48-9.636,21.48-21.479
			C277.48,459.532,267.845,449.897,256,449.897z M256,477.647c-3.458,0-6.272-2.814-6.272-6.271c0-3.458,2.813-6.271,6.272-6.271
			c3.459,0,6.272,2.813,6.272,6.271C262.271,474.833,259.459,477.647,256,477.647z"/>
	</g>
</g>
<g>
</g>
<g>
</g>
<g>
</g>
<g>
</g>
<g>
</g>
<g>
</g>
<g>
</g>
<g>
</g>
<g>
</g>
<g>
</g>
<g>
</g>
<g>
</g>
<g>
</g>
<g>
</g>
<g>
</g>
</svg>
